<svg xmlns="http://www.w3.org/2000/svg" width="18" height="17.997" viewBox="0 0 18 17.997">
  <g id="_017---Self-Star-Rating" data-name="017---Self-Star-Rating" transform="translate(-0.298 0)">
    <g id="Icons" transform="translate(0.3)">
      <path id="Shape" d="M12.3,8.816v.471a5.1,5.1,0,0,1-6.6,0V8.816A2.572,2.572,0,0,1,7.49,6.365a2.4,2.4,0,0,0,3.015,0h0A2.569,2.569,0,0,1,12.3,8.816Z" fill="#ef314c"/>
      <path id="Shape-2" data-name="Shape" d="M10.508,6.365h0a2.4,2.4,0,0,1-.362.24A2.566,2.566,0,0,1,11.4,8.816v.471a5.066,5.066,0,0,1-2.85,1.191c.148.013.3.02.45.02a5.072,5.072,0,0,0,3.3-1.212V8.816A2.569,2.569,0,0,0,10.508,6.365Z" fill="#bb193b"/>
      <path id="Shape-3" data-name="Shape" d="M11.4,4.5a2.394,2.394,0,0,1-.891,1.866h0A2.4,2.4,0,1,1,11.4,4.5Z" fill="#ffe0b2"/>
      <path id="Shape-4" data-name="Shape" d="M9,2.1a2.417,2.417,0,0,0-.45.043A2.4,2.4,0,0,1,9.608,6.365h0a2.392,2.392,0,0,1-1.056.49,2.384,2.384,0,0,0,1.956-.49h0A2.4,2.4,0,0,0,9,2.1Z" fill="#dfc49c"/>
      <path id="Shape-5" data-name="Shape" d="M14.1,5.4a5.08,5.08,0,0,1-1.8,3.885V8.816a2.569,2.569,0,0,0-1.791-2.451,2.4,2.4,0,1,0-3.018,0A2.572,2.572,0,0,0,5.7,8.816v.468A5.1,5.1,0,1,1,14.1,5.4Z" fill="#02a9f4"/>
      <path id="Shape-6" data-name="Shape" d="M6.6,4.5a2.4,2.4,0,0,1,1.95-2.356A2.4,2.4,0,0,0,6.59,6.365a2.573,2.573,0,0,0-1.746,1.98,5.1,5.1,0,0,0,.855.939V8.816A2.572,2.572,0,0,1,7.49,6.365,2.394,2.394,0,0,1,6.6,4.5Z" fill="#0377bc"/>
      <path id="Shape-7" data-name="Shape" d="M9,.3c-.152,0-.3.01-.45.023a5.087,5.087,0,0,1,3.7,8.021,2.61,2.61,0,0,1,.045.473v.468A5.1,5.1,0,0,0,9,.3Z" fill="#0377bc"/>
      <path id="Shape-8" data-name="Shape" d="M5.192,13.427l.024.021v0l.27,1.563a.242.242,0,0,1-.351.258L3.45,14.392l-1.686.879a.242.242,0,0,1-.351-.258l.321-1.854L.375,11.852a.24.24,0,0,1,.132-.414l1.881-.27.846-1.692a.24.24,0,0,1,.432,0l.843,1.692,1.884.27a.24.24,0,0,1,.132.414L5.432,12.9l-.075.012a.3.3,0,0,0-.165.513Z" fill="#fec108"/>
      <path id="Shape-9" data-name="Shape" d="M12.812,13.427l-.03.03-1.656,1.593.4,2.3a.3.3,0,0,1-.432.318L9,16.576,6.911,17.665a.3.3,0,0,1-.435-.318l.4-2.3-1.659-1.6v0l-.024-.021a.3.3,0,0,1,.165-.513l.075-.012,2.253-.321,1.047-2.1a.3.3,0,0,1,.537,0l1.044,2.1,2.253.321.081.012a.3.3,0,0,1,.165.513Z" fill="#ffdc00"/>
      <g id="Group_5076" data-name="Group 5076">
        <path id="Shape-10" data-name="Shape" d="M12.647,12.914l-.081-.012-2.253-.321-1.044-2.1a.3.3,0,0,0-.537,0l-.183.364.864,1.733,2.253.321.081.012a.3.3,0,0,1,.165.513l-.03.03-1.656,1.593.4,2.3a.3.3,0,0,1,0,.075l.466.243a.3.3,0,0,0,.432-.318l-.4-2.3,1.656-1.593.03-.03a.3.3,0,0,0-.165-.513Z" fill="#fec108"/>
        <path id="Shape-11" data-name="Shape" d="M17.623,11.852,16.264,13.16l.321,1.854a.242.242,0,0,1-.351.258l-1.686-.879-1.686.879a.242.242,0,0,1-.351-.258l.27-1.557.03-.03a.3.3,0,0,0-.165-.513l-.081-.012-1.092-1.05a.24.24,0,0,1,.132-.414l1.881-.27.846-1.692a.24.24,0,0,1,.432,0l.843,1.692,1.884.27a.24.24,0,0,1,.132.414Z" fill="#fec108"/>
      </g>
    </g>
    <g id="Icons_copy">
      <path id="Shape-12" data-name="Shape" d="M10.872,9.938a.3.3,0,1,0,.2.567,5.4,5.4,0,1,0-3.537,0,.3.3,0,1,0,.2-.567A4.787,4.787,0,0,1,6.3,9.143V8.816A2.258,2.258,0,0,1,7.748,6.705a2.683,2.683,0,0,0,3.1,0A2.258,2.258,0,0,1,12.3,8.816v.328a4.788,4.788,0,0,1-1.427.794ZM7.2,4.5A2.1,2.1,0,1,1,9.3,6.6,2.1,2.1,0,0,1,7.2,4.5Zm4.14,1.762a2.7,2.7,0,1,0-4.082,0A2.858,2.858,0,0,0,5.709,8.579a4.8,4.8,0,1,1,7.18,0,2.857,2.857,0,0,0-1.55-2.318Z"/>
      <path id="Shape-13" data-name="Shape" d="M6.719,17.881a.6.6,0,0,0,.63.048L9.3,16.915l1.952,1.014a.6.6,0,0,0,.868-.635l-.371-2.139,1.569-1.512a.6.6,0,0,0-.33-1.026L10.811,12.3l-.972-1.954a.6.6,0,0,0-1.074,0L7.787,12.3l-2.173.313a.6.6,0,0,0-.33,1.026l1.569,1.512-.371,2.139a.6.6,0,0,0,.237.586ZM5.7,13.211l2.328-.335a.3.3,0,0,0,.226-.163L9.3,10.619l1.043,2.094a.3.3,0,0,0,.226.163l2.333.335-1.684,1.623a.3.3,0,0,0-.087.267l.4,2.3L9.44,16.312a.3.3,0,0,0-.277,0L7.073,17.4l.4-2.3a.3.3,0,0,0-.087-.267Z"/>
      <path id="Shape-14" data-name="Shape" d="M1.71,13.265,1.417,14.96a.542.542,0,0,0,.785.577l1.548-.806,1.547.808a.3.3,0,1,0,.277-.532l-1.686-.879a.3.3,0,0,0-.277,0l-1.583.825.3-1.74a.3.3,0,0,0-.087-.267L.967,11.715l1.763-.253a.3.3,0,0,0,.226-.163L3.75,9.711,4.541,11.3a.3.3,0,0,0,.226.163l1.883.27a.3.3,0,1,0,.085-.594L5.008,10.89,4.235,9.339a.54.54,0,0,0-.486-.3h0a.534.534,0,0,0-.48.3L2.49,10.89l-1.723.247a.54.54,0,0,0-.3.927Z"/>
      <path id="Shape-15" data-name="Shape" d="M18.271,11.506a.535.535,0,0,0-.438-.368l-1.725-.247-.775-1.553a.535.535,0,0,0-.48-.3h0a.54.54,0,0,0-.487.3l-.773,1.551-1.728.247a.3.3,0,1,0,.085.594l1.884-.27a.3.3,0,0,0,.226-.163l.79-1.586.793,1.588a.3.3,0,0,0,.226.163l1.762.253-1.274,1.23a.3.3,0,0,0-.087.267l.3,1.74-1.583-.826a.3.3,0,0,0-.277,0L13.023,15a.3.3,0,1,0,.277.532l1.548-.806,1.548.808a.542.542,0,0,0,.784-.576l-.292-1.7,1.244-1.2a.54.54,0,0,0,.139-.56Z"/>
      <path id="Shape-16" data-name="Shape" d="M7.649,14.14a.306.306,0,0,0,.043,0l1.128-.162a.3.3,0,0,0,.226-.163l.522-1.044a.3.3,0,1,0-.537-.27l-.45.9-.973.14a.3.3,0,0,0,.043.6Z"/>
    </g>
  </g>
</svg>
